<?xml version="1.0" standalone="no"?>
<!DOCTYPE svg PUBLIC "-//W3C//DTD SVG 20010904//EN"
 "http://www.w3.org/TR/2001/REC-SVG-20010904/DTD/svg10.dtd">
<svg version="1.0" xmlns="http://www.w3.org/2000/svg"
 width="256.000000pt" height="256.000000pt" viewBox="0 0 256.000000 256.000000"
 preserveAspectRatio="xMidYMid meet">
<metadata>
Created by potrace 1.11, written by Peter Selinger 2001-2013
</metadata>
<g transform="translate(0.000000,256.000000) scale(0.100000,-0.100000)"
fill="#000000" stroke="none">
<path d="M0 2020 l0 -540 63 1 c34 0 82 4 107 8 25 5 61 12 80 15 l35 6 -36
-14 c-37 -14 -117 -26 -231 -35 -15 -1 -18 -11 -18 -54 l0 -54 83 13 c45 7
172 31 282 53 226 47 284 49 317 14 12 -13 32 -23 44 -23 25 0 40 -15 24 -25
-13 -8 19 -65 36 -65 7 0 15 -7 18 -16 4 -10 2 -13 -7 -8 -8 5 -7 2 2 -9 8
-11 9 -17 2 -17 -19 0 -55 -94 -62 -165 -4 -38 -11 -88 -16 -110 -5 -22 -6
-53 -2 -68 15 -56 -4 -63 -78 -31 -17 8 -42 14 -55 15 -41 1 -113 35 -110 53
2 11 -5 8 -23 -10 -25 -25 -45 -25 -45 2 0 8 -5 14 -12 14 -6 0 -8 3 -5 6 12
12 -46 48 -89 54 -24 4 -41 3 -38 -1 6 -11 -34 -50 -55 -54 -9 -1 -15 -8 -14
-14 4 -14 -14 -14 -22 -1 -4 7 -11 8 -18 1 -9 -7 -13 -1 -14 22 -1 17 -7 35
-13 41 -9 8 -10 -3 -6 -39 2 -27 5 -56 5 -63 1 -7 5 -10 11 -7 5 3 10 2 10 -3
0 -21 -28 -20 -34 1 -3 12 -8 19 -11 16 -10 -10 17 -69 32 -69 8 0 11 -5 8
-10 -5 -8 -11 -8 -19 -1 -7 6 -16 7 -20 3 -4 -4 -7 -2 -6 3 4 19 -2 50 -7 38
-2 -7 -9 -13 -14 -13 -6 0 -8 4 -5 9 3 5 -4 11 -15 14 -12 3 -18 10 -14 16 3
7 0 8 -9 5 -11 -4 -19 2 -25 17 -6 16 -10 -146 -10 -458 l-1 -483 1280 0 1280
0 0 95 0 95 -52 0 c-87 0 -249 13 -243 19 3 3 34 4 68 3 67 -2 111 13 70 24
-13 4 -20 10 -17 15 4 8 -24 13 -63 12 -7 -1 -13 3 -13 7 0 5 26 11 58 15 88
9 94 12 145 56 l47 41 0 659 c0 572 -2 664 -15 689 -14 28 -13 34 8 31 4 0 7
3 7 9 0 5 -6 10 -12 10 -9 0 -9 3 -2 8 5 4 11 28 13 55 2 45 2 47 -26 48 l-28
1 28 10 c15 5 27 16 27 24 0 12 -10 13 -52 8 -29 -4 -59 -11 -66 -17 -7 -5
-16 -7 -19 -3 -12 12 17 23 78 30 l59 7 0 305 0 305 -693 -5 c-380 -3 -708 -5
-727 -6 -19 0 -109 2 -200 5 l-165 4 105 -20 c58 -11 114 -21 125 -23 45 -7
105 -27 105 -35 0 -8 -54 -6 -103 4 -9 2 -15 0 -12 -5 3 -4 -4 -10 -14 -13
-11 -3 -22 1 -25 9 -3 7 -12 11 -21 8 -8 -4 -15 -1 -15 6 0 9 -6 8 -19 -4 -15
-14 -20 -14 -30 -2 -9 11 -17 11 -35 3 -14 -7 -22 -15 -20 -19 3 -5 -3 -11
-13 -15 -10 -4 -31 -20 -48 -35 -36 -34 -103 -42 -86 -10 12 23 -4 55 -18 33
-6 -9 -11 -10 -15 -2 -4 6 -12 9 -17 6 -5 -4 -9 -1 -9 4 0 6 6 11 13 11 7 0
13 9 14 20 2 23 40 59 63 60 8 0 22 5 30 10 10 6 -113 10 -357 10 l-373 0 0
-540z m620 474 c0 -8 -5 -12 -10 -9 -6 4 -8 11 -5 16 9 14 15 11 15 -7z m1718
-42 c-4 -2 -5 -8 -2 -13 4 -6 11 -6 19 1 9 7 21 7 40 0 15 -6 44 -8 64 -5 l36
6 -45 -20 c-61 -27 -94 -26 -126 4 -15 14 -36 25 -46 25 -13 0 -18 6 -16 17 4
23 28 29 28 6 0 -15 2 -16 10 -3 8 13 10 12 10 -2 0 -10 5 -18 10 -18 6 0 8
12 4 28 l-6 27 14 -25 c8 -14 10 -27 6 -28z m-1745 8 c-3 -12 -8 -19 -11 -16
-5 6 5 36 12 36 2 0 2 -9 -1 -20z m1647 -2 c0 -14 -5 -16 -22 -9 -31 11 -34
29 -3 27 16 -1 25 -7 25 -18z m-1695 1 c-9 -14 25 -38 43 -31 8 3 18 -1 23 -9
14 -22 10 -33 -6 -19 -8 7 -15 8 -15 4 0 -5 -13 -10 -30 -10 -16 -1 -27 2 -24
7 3 5 -2 6 -11 3 -10 -4 -22 1 -30 12 -20 26 -18 33 5 27 16 -4 19 -2 14 11
-4 12 0 16 16 16 12 0 18 -4 15 -11z m-75 -13 c0 -8 -11 -13 -30 -12 -36 1
-37 4 -7 16 31 12 37 12 37 -4z m1778 -29 c8 -6 12 -6 12 2 0 18 23 13 55 -13
l30 -24 -30 -7 c-16 -4 -42 -11 -57 -17 -15 -5 -32 -7 -37 -3 -6 3 -11 1 -11
-4 0 -6 -7 -11 -15 -11 -9 0 -12 6 -9 15 4 8 3 15 0 15 -4 0 -11 -11 -16 -25
-8 -20 -16 -25 -45 -25 -28 0 -35 4 -35 20 0 11 7 20 15 20 13 0 21 30 16 62
-1 10 112 6 127 -5z m-267 -41 c7 -29 17 -46 30 -49 28 -7 23 -36 -8 -50 -34
-15 -73 -48 -73 -62 0 -6 -9 -18 -20 -28 -15 -13 -20 -29 -20 -70 0 -52 0 -53
42 -72 38 -18 72 -65 48 -65 -6 0 -10 8 -11 18 0 12 -3 10 -11 -8 -6 -14 -10
-30 -9 -36 1 -6 -5 -17 -13 -23 -11 -9 -12 -20 -4 -47 5 -20 7 -38 4 -42 -3
-3 -6 0 -6 6 0 9 -6 9 -24 1 -21 -10 -23 -15 -15 -42 5 -16 6 -34 3 -39 -3 -5
0 -16 7 -24 9 -11 9 -18 1 -26 -9 -9 -9 -15 0 -25 6 -8 11 -35 10 -61 0 -26 5
-50 11 -54 9 -6 8 -8 -1 -8 -9 0 -11 -7 -7 -21 7 -20 6 -20 -26 -4 -18 10 -48
23 -67 29 -31 11 -35 17 -37 52 -8 106 -17 202 -21 229 -3 17 -5 38 -5 48 0
13 -6 16 -27 11 -15 -4 -32 -11 -38 -15 -6 -5 -13 -6 -17 -3 -5 6 -232 -31
-261 -42 -20 -8 -31 53 -28 154 3 72 7 92 18 92 15 0 19 16 5 22 -18 6 0 56
23 62 26 7 95 67 110 97 8 15 28 26 66 36 30 7 62 16 70 20 8 3 17 7 20 8 3 1
12 4 20 8 39 15 123 27 134 18 14 -12 51 13 41 28 -3 7 0 8 9 5 8 -3 23 -1 33
5 28 16 32 14 44 -33z m-638 -50 c9 -7 17 -18 17 -25 0 -6 7 -23 16 -37 12
-17 20 -22 29 -14 9 8 10 2 1 -25 -10 -32 -12 -33 -29 -18 -17 16 -17 16 -11
-3 5 -15 3 -14 -11 4 -10 13 -18 42 -19 64 -2 27 -9 45 -21 54 -14 10 -15 14
-4 14 8 0 22 -7 32 -14z m51 -162 c3 -8 2 -12 -4 -9 -6 3 -10 10 -10 16 0 14
7 11 14 -7z m1126 -23 c0 -25 -24 -33 -47 -16 -16 13 -16 16 -3 25 25 16 50
12 50 -9z m-1337 -65 c9 -13 17 -43 18 -67 1 -24 7 -50 12 -56 5 -7 6 -24 3
-37 -7 -27 9 -70 36 -100 10 -11 18 -23 18 -27 0 -4 9 -9 19 -12 18 -4 19 -7
4 -48 -8 -24 -26 -59 -40 -78 l-26 -34 -13 24 c-7 13 -26 33 -43 44 -16 11
-36 30 -42 42 -7 13 -19 23 -26 23 -7 0 -16 6 -19 14 -6 14 12 41 55 83 13 13
19 23 12 23 -7 0 -3 12 9 28 36 49 34 169 -4 194 -8 6 -8 8 0 8 7 0 19 -11 27
-24z m-634 -112 c55 -80 64 -112 18 -70 -15 14 -33 29 -40 33 -22 13 -64 96
-60 116 6 25 20 12 82 -79z m503 26 c-1 -14 -5 -36 -8 -48 -3 -15 -1 -21 6
-17 5 3 10 1 10 -4 0 -6 -8 -11 -19 -11 -14 0 -20 10 -25 42 -5 29 -3 44 5 47
8 2 7 6 -2 13 -10 6 -7 8 11 6 20 -2 24 -8 22 -28z m-465 -2 c-3 -8 -6 -5 -6
6 -1 11 2 17 5 13 3 -3 4 -12 1 -19z m491 -13 c-1 -14 -6 -25 -10 -25 -4 0 -8
11 -8 25 0 14 4 25 10 25 5 0 9 -11 8 -25z m1382 -75 c0 -5 -7 -10 -16 -10 -8
0 -12 5 -9 10 3 6 10 10 16 10 5 0 9 -4 9 -10z m-837 -157 c4 -19 2 -33 -3
-33 -6 0 -10 17 -10 37 0 43 5 41 13 -4z m64 15 c-3 -8 -6 -5 -6 6 -1 11 2 17
5 13 3 -3 4 -12 1 -19z m-130 -40 c-3 -8 -6 -5 -6 6 -1 11 2 17 5 13 3 -3 4
-12 1 -19z m43 1 c0 -5 -4 -9 -10 -9 -5 0 -10 7 -10 16 0 8 5 12 10 9 6 -3 10
-10 10 -16z m739 -30 c-17 -10 -29 -2 -29 21 0 25 34 31 38 6 2 -10 -2 -22 -9
-27z m66 32 c3 -5 1 -12 -5 -16 -5 -3 -10 1 -10 9 0 18 6 21 15 7z m-775 -78
c0 -10 -4 -14 -8 -8 -4 6 -11 13 -16 18 -5 4 -2 7 7 7 10 0 17 -8 17 -17z
m-1220 -78 c0 -7 -77 -45 -92 -45 -7 0 10 11 37 24 59 29 55 27 55 21z m520
-120 c0 -1 -6 -7 -13 -13 -10 -8 -13 -6 -14 8 -1 13 3 17 13 13 8 -3 14 -6 14
-8z m1347 -97 c-3 -8 -6 -5 -6 6 -1 11 2 17 5 13 3 -3 4 -12 1 -19z m13 -80
c0 -34 -2 -59 -4 -57 -8 9 -13 119 -5 119 5 0 9 -28 9 -62z m-1740 -378 c0 -5
15 -10 33 -10 17 0 28 -4 22 -8 -5 -4 -10 -18 -10 -32 0 -14 -4 -28 -8 -31 -5
-3 -11 -24 -14 -47 -3 -24 -12 -43 -21 -47 -24 -9 -45 36 -23 50 5 3 8 35 5
70 -3 41 -1 65 6 65 5 0 10 -4 10 -10z m188 -37 c0 -10 2 -25 6 -33 8 -19 -3
-36 -30 -44 -18 -6 -22 -2 -22 21 0 16 9 38 21 51 25 27 26 27 25 5z m-143
-188 c5 -7 25 -22 44 -35 30 -21 32 -24 15 -30 -32 -11 -112 -11 -119 0 -3 5
-15 10 -25 10 -10 0 -17 6 -16 13 6 28 19 47 32 47 8 0 14 5 14 11 0 13 41 1
55 -16z"/>
<path d="M2160 2395 c7 -9 15 -13 17 -11 7 7 -7 26 -19 26 -6 0 -6 -6 2 -15z"/>
<path d="M2200 2400 c8 -6 24 -16 35 -22 20 -11 20 -11 1 11 -11 11 -26 21
-35 21 -14 0 -14 -2 -1 -10z"/>
<path d="M1900 1891 c0 -6 5 -13 10 -16 6 -3 10 1 10 9 0 9 -4 16 -10 16 -5 0
-10 -4 -10 -9z"/>
<path d="M681 2504 c0 -11 3 -14 6 -6 3 7 2 16 -1 19 -3 4 -6 -2 -5 -13z"/>
<path d="M651 2484 c0 -11 3 -14 6 -6 3 7 2 16 -1 19 -3 4 -6 -2 -5 -13z"/>
<path d="M760 2480 c8 -5 20 -10 25 -10 6 0 3 5 -5 10 -8 5 -19 10 -25 10 -5
0 -3 -5 5 -10z"/>
<path d="M215 1221 c-6 -5 -19 -11 -30 -14 -13 -3 -9 -5 10 -5 17 1 35 -1 40
-3 15 -5 55 11 55 22 0 12 -63 12 -75 0z"/>
<path d="M111 1201 c-7 -5 -11 -15 -9 -22 3 -10 8 -7 17 9 13 24 12 26 -8 13z"/>
<path d="M151 1177 c-19 -7 -36 -18 -39 -25 -3 -11 0 -12 16 -3 28 15 32 14
26 -4 -7 -18 18 -20 46 -5 10 6 34 12 52 14 18 3 35 5 38 6 7 2 -83 30 -95 29
-5 0 -25 -5 -44 -12z"/>
<path d="M255 1091 c-3 -5 -1 -12 5 -16 5 -3 10 1 10 9 0 18 -6 21 -15 7z"/>
<path d="M155 1080 c-4 -6 5 -10 19 -10 14 0 26 5 26 10 0 6 -9 10 -19 10 -11
0 -23 -4 -26 -10z"/>
</g>
</svg>
